# xmcd
#
# Track frame offsets: 
#        183
#        22690
#        39130
#        59198
#        76130
#        88198
#        97930
#        113423
#        126648
#        141983
#        151665
#        167905
#        182615
#        203115
#        224265
#
# Disc length: 3516 seconds
#
# Revision: 0
# Processed by: cddbd v1.5.2PL0 Copyright (c) Steve Scherf et al.
# Submitted via: ExactAudioCopyFreeDBPlugin 1.0
#
DISCID=c10dba0f
DTITLE=Jean-Paul Amouroux - Jean-Pierre Bertrand - Les nuits Jazz and Bo
DTITLE=ogie piano
DYEAR=1991
DGENRE=Boogie woogie
TTITLE0=Jean-Paul Amouroux - Pinetop's boogie woogie
TTITLE1=Jean-Pierre Bertrand - Boogie woogie blues
TTITLE2=Philippe Lejeune - Saint-Louis blues
TTITLE3=Carl Sonny Leyland - Warming up the keys
TTITLE4=Martin Pyrker - Paris boogie woogie
TTITLE5=Rob Agerbeek - Tuxedo boogie
TTITLE6=Günther Straub - Mecca flat boogie
TTITLE7=Vince Weber - Pinetop's boogie woogie
TTITLE8=Bob Seeley - Boogie at the philarmonic
TTITLE9=F.Rilhac-L.Mazetier - Harlem boogie stride
TTITLE10=R.Agerbeek-J.P.Amouroux - Rob and J-P boogie
TTITLE11=M.Pyrker-R.Agerbeek - Roll'em Pete
TTITLE12=J.P.Bertrand-G.Straub - J&B boogie
TTITLE13=J.P.Amouroux-M.Pyrker - Véronique boogie woogie
TTITLE14=All - Lutetia boogie
EXTD=
EXTT0=
EXTT1=
EXTT2=
EXTT3=
EXTT4=
EXTT5=
EXTT6=
EXTT7=
EXTT8=
EXTT9=
EXTT10=
EXTT11=
EXTT12=
EXTT13=
EXTT14=
PLAYORDER=
